Coordinates

Units are S.I. units (second, meters, Newtons, ...)
If the header above contains a line with 'inDegrees', this indicates whether rotational values are in degrees (yes) or radians (no).

inDegrees=no
nColumns=21
nRows=20
DataType=double
version=3
OpenSimVersion=4.6-2026-03-31-d6972f9e6
endheader
time	/jointset/ground_pelvis/pelvis_tilt/value	/jointset/ground_pelvis/pelvis_list/value	/jointset/ground_pelvis/pelvis_rotation/value	/jointset/ground_pelvis/pelvis_tx/value	/jointset/ground_pelvis/pelvis_ty/value	/jointset/ground_pelvis/pelvis_tz/value	/jointset/hip_r/hip_flexion_r/value	/jointset/hip_r/hip_adduction_r/value	/jointset/hip_r/hip_rotation_r/value	/jointset/walker_knee_r/knee_angle_r/value	/jointset/patellofemoral_r/knee_angle_r_beta/value	/jointset/ankle_r/ankle_angle_r/value	/jointset/subtalar_r/subtalar_angle_r/value	/jointset/hip_l/hip_flexion_l/value	/jointset/hip_l/hip_adduction_l/value	/jointset/hip_l/hip_rotation_l/value	/jointset/walker_knee_l/knee_angle_l/value	/jointset/patellofemoral_l/knee_angle_l_beta/value	/jointset/ankle_l/ankle_angle_l/value	/jointset/subtalar_l/subtalar_angle_l/value
144.996	0.06032463535692004	0.008916990019582627	1.475801490417109	0.850661575376262	1.095702669196839	-0.9224736910017034	0.1113091143158196	0.1912252230085251	0.1683519654409457	0.6892967569626144	0.689296757458868	0.3753752771587045	-0.4635754963270201	0.2793860932654042	-0.1790739486711167	0.03929775357620121	1.743317030435963	1.743317031041412	-0.3062717759916079	-0.5013391624752844
145	0.05263989141515966	0.005780649970923227	1.478579760662093	0.8502306784200404	1.097741370145893	-0.9225841991894682	0.09294398408078859	0.1800293227052713	0.1708152301087497	0.6691968024095757	0.669196802840069	0.3705338708767375	-0.4617805970228663	0.2998588842666617	-0.1678101696363156	0.04079002800198801	1.73829006437265	1.738290064909329	-0.2937524260298464	-0.4894564274587704
145.004	0.0446161743151405	0.002334743202926129	1.481173145823979	0.8498269214067816	1.099927055365464	-0.9227620754017205	0.07471066450177548	0.1685595440465038	0.1734257310963247	0.6484035595601573	0.6484035599231337	0.3632843486023923	-0.4607635335934169	0.319970286083473	-0.1560232437824253	0.0416206574624217	1.731616950348633	1.73161695080627	-0.2814515809117631	-0.4773160758136408
145.008	0.03626844306138129	-0.001395008072278395	1.483560969902111	0.8494504654195694	1.102249369627803	-0.9230051362133415	0.05664742563041505	0.1568255641675043	0.1760946048920863	0.6270281367160909	0.6270281370070581	0.3536095938559686	-0.4604400447691087	0.3396564023205094	-0.143764078723303	0.04179495526052689	1.723321175075786	1.72332117544759	-0.2694068746570791	-0.4650871593597408
145.012	0.02761238847476462	-0.005374532107048389	1.485731849874321	0.8491001265935242	1.104699085260457	-0.9233117446473706	0.03878321890863133	0.1448314164985474	0.1787129889448611	0.6051814743369938	0.6051814745482211	0.3415158832114455	-0.4606882388539837	0.3588507958728975	-0.1310796148721198	0.04133283178064035	1.713425717179366	1.71342571746129	-0.2576666760115056	-0.452950930866984
145.016	0.01866552817143913	-0.009562351239097716	1.487683066051446	0.8487735480405642	1.107268051122457	-0.9236807913897688	0.02113864813479495	0.1325783138760908	0.181155035086907	0.5829745072806986	0.5829745074021881	0.3270331338651939	-0.4613514810185864	0.3774849978580241	-0.1180137931544016	0.04026747787361259	1.701952954631477	1.701952954821043	-0.2462895114530438	-0.4410977473827102
145.02	0.009448159480768208	-0.01391095882129301	1.489419743441448	0.8484674070699203	1.10994907761165	-0.9241116393814681	0.003727232375237206	0.1200674367693418	0.1832817319584253	0.5605180090018075	0.5605180090234163	0.3102148095346522	-0.4622429198409933	0.3954894514926844	-0.1046085700535248	0.03864391050604775	1.688924741721827	1.688924741816755	-0.2353428417289578	-0.4297233635678712
145.024	-1.587185388199492e-05	-0.01836863421001935	1.49095385551998	0.8481776480576266	1.112735757398334	-0.9246040335839699	-0.01344298773890249	0.1073025237954516	0.1849454039645447	0.5379221949742307	0.5379221948882194	0.2911375946650501	-0.4631512760593336	0.4127949358488584	-0.09090494563701985	0.03651739464945632	1.674362649034876	1.674362649031776	-0.2249012341256781	-0.4190247213853399
145.028	-0.009698598387858352	-0.02288164807131465	1.492303038767393	0.8478997327292171	1.115622228571886	-0.9251579795183035	-0.03036749768792994	0.09429214398130646	0.1859947421878912	0.5152961812717295	0.5152961810750176	0.2699008452834249	-0.463847505136849	0.4293344351679195	-0.07694400417766005	0.03395172364251473	1.658288339290129	1.658288339183528	-0.2150440466752432	-0.4091954218379422
145.032	-0.0195675714229938	-0.02739655590262817	1.493489283735931	0.8476288967780803	1.118602911948578	-0.9257736016340582	-0.04704333450643527	0.08105152837444188	0.1862801634116612	0.4927472834272337	0.4927472831229354	0.2466256078968678	-0.4640922691100233	0.4450451075967705	-0.0627678941648025	0.03101741637836737	1.640724003622997	1.640724003404981	-0.2058525801826599	-0.4004208456366853
145.036	-0.0295857029778274	-0.0318621759239195	1.49453760159942	0.8473604028561159	1.121672264072123	-0.9264509962149354	-0.06346755790735825	0.06760389661431959	0.1856593009301043	0.4703800771438352	0.4703800767419409	0.2214529213878081	-0.4636443291404208	0.4598698816834268	-0.04842068886189933	0.02778992681151327	1.621692771097687	1.621692770758399	-0.1974065753666465	-0.3928727953631111
145.04	-0.03971125495300291	-0.036231110756522	1.495474702850851	0.8470897841000278	1.124824562298506	-0.927190088002675	-0.0796363024384103	0.05398130131691854	0.1840024881137856	0.4482952501917858	0.4482952497090235	0.1945413984637438	-0.462269659841285	0.4737585326950158	-0.03394916911039271	0.02434789846620961	1.601219060693454	1.601219060222479	-0.1897801550242406	-0.3867037852319686
145.044	-0.04989794036675083	-0.04046099006428326	1.496327672333357	0.8468130721852632	1.128053708589358	-0.9279904922259041	-0.09554412316225977	0.04022502344999173	0.181198090926272	0.4265884338681659	0.4265884333272094	0.1660644497028483	-0.4597506411727142	0.4866684865989876	-0.01940358282567618	0.02077143272535313	1.579328902417501	1.57932890180588	-0.183037601036915	-0.3820414132838761
145.048	-0.06009515172665108	-0.0445156408567616	1.497122646308317	0.846527000240195	1.131353036748886	-0.9288513823389064	-0.1111832929842092	0.02638551037189653	0.1771574822382226	0.4053492415542699	0.4053492409825658	0.1362075771863759	-0.4558945899774383	0.4985656356623006	-0.00483834757569684	0.01714035193773269	1.556050252583288	1.556050251825702	-0.1772293991501641	-0.3789832909900909
145.052	-0.07024834505256651	-0.04836626242943183	1.497883538485092	0.846229169584554	1.134715120781031	-0.9297713659758998	-0.1265428762170323	0.01252184524774789	0.1718194124025441	0.3846606900970248	0.3846606895254332	0.1051660076123755	-0.4505410836751632	0.5094252823313553	0.00968739419796791	0.01353248547064137	1.531413304794176	1.531413303890789	-0.1723888350295973	-0.3775928441901
145.056	-0.08029959979783187	-0.05199259353770776	1.498630881545953	0.8459181709079886	1.138131590772972	-0.9307483739667876	-0.1416075429430279	-0.001299237716658013	0.1651535412097855	0.3645991007546919	0.3645991002159064	0.07314279695387169	-0.4435677422276817	0.5192332085502843	0.02410946210671251	0.01002203024807621	1.505450785495914	1.505450784453553	-0.1685293030992915	-0.3778961618148627
145.06	-0.09018841239748823	-0.05538392575023077	1.49938087963036	0.845593652006993	1.141592975632724	-0.9317795733276439	-0.156356324811328	-0.01500480467894203	0.1571629277697803	0.3452344050532454	0.3452344045798765	0.04034740123524445	-0.4348943983683001	0.5279866899054855	0.03835872322330175	0.006678041621829486	1.478198184785959	1.478198183618553	-0.1656424532176503	-0.3798800211949491
145.064	-0.09985282569523786	-0.05853966965497544	1.500144794426538	0.8452563259986645	1.145088605811382	-0.9328613214709658	-0.170761771241094	-0.02851769068436113	0.1478853358804113	0.3266305935524765	0.3266305931748427	0.006994550501950692	-0.4244858641267912	0.5356950786169302	0.05236180554844585	0.003563115243045107	1.449693829437868	1.449693828166304	-0.1636972845667915	-0.3834911965192377
145.068	-0.1092308956326299	-0.0614692698893371	1.500928732971658	0.844907920896574	1.148606598999781	-0.9339891725978823	-0.184789845874464	-0.04175891489890497	0.1373933528570307	0.3088460951797591	0.3088460949236193	-0.02669677216607016	-0.4123535078239827	0.5423796867065869	0.06604250997441538	0.0007323135118767746	1.419978752270751	1.419978750922261	-0.1626402395404093	-0.38863709367655
145.072	-0.1182622912750442	-0.0641915208277368	1.501733790238173	0.8445510816617214	1.152133924464038	-0.9351579310768765	-0.1984005072925343	-0.05465024492977395	0.1257934799366048	0.291934109903018	0.2919341097876128	-0.06050435112845315	-0.3985556012710118	0.5480730240146242	0.07932365861249106	-0.001767639034969858	1.389096424895573	1.389096423502644	-0.1623962669734212	-0.3951876811317521
